<svg width="48.000000" height="48.000000" viewBox="0 0 48 48" fill="none" xmlns="http://www.w3.org/2000/svg" xmlns:xlink="http://www.w3.org/1999/xlink">
	<desc>
			Created with Pixso.
	</desc>
	<defs/>
	<path d="M4.5 23.22C4.5 14.39 4.5 9.98 7.24 7.24C9.98 4.5 14.39 4.5 23.22 4.5L24.78 4.5C33.6 4.5 38.01 4.5 40.75 7.24C43.5 9.98 43.5 14.39 43.5 23.22L43.5 24.77C43.5 33.6 43.5 38.01 40.75 40.75C38.01 43.5 33.6 43.5 24.78 43.5L23.22 43.5C14.39 43.5 9.98 43.5 7.24 40.75C4.5 38.01 4.5 33.6 4.5 24.77L4.5 23.22Z" fill="#0077FF" fill-opacity="1.000000" fill-rule="evenodd"/>
	<path d="M25.13 32.2C16.26 32.2 11.21 26.11 11 16L15.44 16C15.58 23.42 18.86 26.57 21.45 27.22L21.45 16L25.63 16L25.63 22.4C28.19 22.12 30.88 19.21 31.79 16L35.97 16C35.28 19.95 32.36 22.87 30.28 24.07C32.36 25.04 35.68 27.59 36.95 32.2L32.34 32.2C31.35 29.11 28.89 26.73 25.63 26.41L25.63 32.2L25.13 32.2Z" fill="#FFFFFF" fill-opacity="1.000000" fill-rule="evenodd"/>
</svg>
